<svg width="35" height="35" viewBox="0 0 35 35" fill="none" xmlns="http://www.w3.org/2000/svg">
<path fill-rule="evenodd" clip-rule="evenodd" d="M24.8529 20.852C24.8529 20.5763 24.9284 20.5509 25.1893 20.5509H27.1213C27.3586 20.5509 27.4441 20.6114 27.4442 20.852L27.4351 27.4721C27.2845 27.4904 27.0858 27.4642 26.9528 27.4953C26.8253 27.5251 26.7358 27.6228 26.7369 27.8026C26.7392 28.1842 27.0796 28.1043 27.3841 28.1524C27.2284 28.6969 26.7795 29.0804 26.1381 29.0795C25.4998 29.0787 24.9629 28.6167 24.9052 28.1378C25.5244 28.1378 26.3387 28.2688 26.2977 27.7752C26.2895 27.6764 26.2241 27.5545 26.1243 27.5123C25.9846 27.4532 25.141 27.4948 24.8659 27.4775C24.8112 26.8462 24.8529 21.8987 24.8529 20.852V20.852ZM14.5824 24.3447L20.615 24.3559L20.6154 26.2572L14.5783 26.242L14.5824 24.3446V24.3447ZM4.65092 8.03599C4.65092 7.73644 4.82258 7.67359 5.11563 7.67476C13.4308 7.70835 21.7849 7.66852 30.1069 7.67449C30.3724 7.67471 30.5457 7.74881 30.5457 8.03599V23.2931C30.5457 23.5685 30.4259 23.6872 30.1727 23.6872L28.1072 23.6849L28.1042 22.5128C29.0116 22.478 29.3711 22.6736 29.3711 22.0726V9.29051C29.3711 8.92799 29.2676 8.85037 28.9013 8.85037H10.7454C10.1082 8.85037 10.2842 9.4128 10.5183 9.48706C10.692 9.54219 22.9222 9.50668 23.8665 9.50668C24.7235 9.50668 28.1533 9.4619 28.7082 9.51393L28.6975 21.8547H28.1165C28.024 21.253 28.4552 19.8925 27.1213 19.8925H25.1888C23.844 19.8925 24.262 21.0969 24.1841 21.8565L6.4838 21.8474L6.49254 9.51574C6.93086 9.46227 7.69657 9.50519 8.16864 9.50673C8.44708 9.50764 8.72536 9.54309 8.77942 9.25202C8.84259 8.91221 8.58377 8.85032 8.33918 8.85032H6.26992C5.92531 8.85032 5.82184 8.93572 5.82184 9.29045V22.0725C5.82184 22.602 6.1239 22.5128 6.57501 22.5127C8.44511 22.512 23.8574 22.4755 24.1898 22.5273L24.183 23.6792L5.08322 23.6872C4.8366 23.6872 4.65092 23.6369 4.65092 23.327V8.03599V8.03599ZM28.1085 24.3488C28.5617 24.3281 30.1726 24.3802 30.4314 24.3267C30.7453 24.262 30.9742 24.0715 31.1052 23.8193C31.2585 23.5241 31.1941 23.0969 31.1941 22.7507V8.71411C31.1941 8.1174 31.3502 7.29972 30.5142 7.05251C30.2276 6.9678 28.6246 7.0184 28.2062 7.0184C20.7924 7.0184 13.3786 7.0184 5.96471 7.0184C5.24528 7.0184 4.45782 6.85462 4.11018 7.50438C3.94433 7.81438 3.99823 8.15498 3.99823 8.54458V22.5811C3.99823 23.3831 3.889 24.0259 4.62751 24.2873C4.96359 24.4063 12.8556 24.3446 13.9117 24.3446L13.9123 26.2571C13.58 26.2571 13.2475 26.258 12.9151 26.257C12.6206 26.2561 12.2927 26.2314 12.28 26.5813C12.2666 26.9496 12.5778 26.9438 12.8811 26.9425L21.4592 26.9423C22.1584 26.9423 23.0103 27.0877 22.9137 26.5173C22.8634 26.2203 22.5184 26.2565 22.239 26.257C21.9193 26.2575 21.5996 26.2571 21.2797 26.2571L21.2837 24.3439L24.1892 24.3596C24.2258 25.5584 24.122 26.8613 24.2022 28.0412C24.235 28.523 24.5344 28.9917 24.8449 29.2654C26.0358 30.3153 27.8912 29.6111 28.0935 28.0009C28.1662 27.4215 28.066 25.2347 28.1085 24.3488V24.3488Z" fill="#F68A29"/>
<path fill-rule="evenodd" clip-rule="evenodd" d="M17.5943 18.703C16.1053 18.703 14.8904 17.4588 14.8904 15.9695C14.8904 13.6467 17.7409 12.3771 19.4858 14.0449C20.0179 14.5535 20.3067 15.2349 20.3067 16.0712C20.3067 16.3794 20.0872 16.8434 20.3296 17.028C20.4618 17.1286 20.6523 17.1121 20.7648 17.0063C20.8789 16.899 20.883 16.7112 20.9209 16.5476C21.304 14.895 19.9875 12.6226 17.5604 12.6226C16.3043 12.6226 15.3945 13.271 14.8186 14.0764C13.2955 16.2061 14.8298 19.4864 17.7991 19.3572C19.2793 19.2929 18.7878 18.5607 18.4744 18.5595C18.3895 18.5592 18.1751 18.6348 18.0676 18.6533C17.9298 18.6771 17.7312 18.703 17.5943 18.703V18.703Z" fill="#F68A29"/>
<path fill-rule="evenodd" clip-rule="evenodd" d="M16.8492 14.7832V17.1904C16.8492 17.5595 17.1116 17.7475 17.4275 17.5342C17.8526 17.247 18.5361 16.6808 19.0136 16.3398C19.1421 16.2479 19.2522 16.1882 19.2617 16.001C19.2749 15.7428 18.9012 15.5464 18.7255 15.4113L17.4511 14.4509C17.1493 14.2336 16.8492 14.3712 16.8492 14.7832V14.7832Z" fill="#F68A29"/>
<path fill-rule="evenodd" clip-rule="evenodd" d="M19.8362 17.568C19.7451 17.6275 19.4148 17.9779 19.3911 18.0775C19.3139 18.4017 19.6222 18.6272 19.8825 18.4617C19.9612 18.4118 20.286 18.0549 20.3241 17.9483C20.4392 17.6259 20.1148 17.3862 19.8362 17.568Z" fill="#F68A29"/>
<path fill-rule="evenodd" clip-rule="evenodd" d="M27.1427 26.0673C27.2292 25.8951 27.1545 25.6454 26.9579 25.5607C26.7496 25.4711 26.4953 25.5815 26.4325 25.7527C26.2542 26.2376 26.919 26.5126 27.1427 26.0673V26.0673Z" fill="#F68A29"/>
<path fill-rule="evenodd" clip-rule="evenodd" d="M27.1395 23.3606C27.2175 23.1789 27.161 22.9317 26.9595 22.8477C26.7214 22.7483 26.494 22.8821 26.4341 23.0405C26.2398 23.5534 26.9638 23.7698 27.1395 23.3606V23.3606Z" fill="#F68A29"/>
<path fill-rule="evenodd" clip-rule="evenodd" d="M25.3025 21.2626C25.2097 21.3166 25.1546 21.2996 25.1255 21.4646C24.9886 22.2426 26.1382 21.9697 25.8485 21.4141C25.7698 21.2634 25.6297 21.1866 25.4597 21.2003C25.2869 21.2142 25.3322 21.2454 25.3026 21.2626H25.3025Z" fill="#F68A29"/>
<path fill-rule="evenodd" clip-rule="evenodd" d="M27.1366 24.6496C27.3668 24.1776 26.6198 23.9148 26.4483 24.3236C26.2474 24.802 26.8999 25.1351 27.1366 24.6496Z" fill="#F68A29"/>
<path fill-rule="evenodd" clip-rule="evenodd" d="M25.8442 26.0394C26.0335 25.5343 25.2855 25.3359 25.1389 25.7499C24.9589 26.258 25.6678 26.5105 25.8442 26.0394Z" fill="#F68A29"/>
<path fill-rule="evenodd" clip-rule="evenodd" d="M25.8373 24.6496C26.0569 24.1409 25.277 23.9144 25.1366 24.3588C24.9773 24.8626 25.6471 25.0903 25.8373 24.6496Z" fill="#F68A29"/>
<path fill-rule="evenodd" clip-rule="evenodd" d="M25.8451 23.3268C25.92 23.123 25.82 22.9124 25.6418 22.844C25.4149 22.7569 25.1986 22.8772 25.1404 23.0403C24.9542 23.5613 25.6736 23.7935 25.8451 23.3267V23.3268Z" fill="#F68A29"/>
</svg>
