<svg width="35" height="35" viewBox="0 0 35 35" fill="none" xmlns="http://www.w3.org/2000/svg">
<path fill-rule="evenodd" clip-rule="evenodd" d="M22.9576 9.72061C22.4383 9.86472 22.6882 10.443 23.0811 10.3699C23.4967 10.2925 23.3835 9.60244 22.9576 9.72061Z" fill="#F68A29" stroke="#F68A29" stroke-width="0.0368209" stroke-miterlimit="2.61313"/>
<path fill-rule="evenodd" clip-rule="evenodd" d="M12.2444 24.5972C11.7922 24.7841 12.1187 25.3874 12.5049 25.2128C12.8985 25.0347 12.6654 24.4232 12.2444 24.5972Z" fill="#F68A29" stroke="#F68A29" stroke-width="0.0368209" stroke-miterlimit="2.61313"/>
<path fill-rule="evenodd" clip-rule="evenodd" d="M7.60148 29.3089C8.08944 29.2657 8.58606 29.302 9.0756 29.2985C9.443 29.2959 9.53882 29.1802 9.54323 28.8155L9.54563 28.6214L9.73675 28.5873C10.3498 28.4779 11.2157 28.9127 11.7447 29.2039C12.2728 29.4946 12.7978 29.7929 13.3295 30.0766C13.8717 30.3659 14.4217 30.6327 14.9798 30.89C16.2613 31.4807 17.5081 31.6233 18.8361 31.0752C19.4174 30.8353 20.0279 30.6248 20.6212 30.415C21.2356 30.1977 21.8516 29.9844 22.4664 29.7731L26.0654 28.4821C26.3716 28.377 26.6708 28.2581 26.9756 28.1542C27.259 28.0575 27.5528 27.9681 27.8249 27.8432C28.3158 27.6178 28.7684 27.2103 29.0293 26.7362C29.3368 26.1777 29.3573 25.5789 29.0962 24.997C28.8618 24.4743 28.5094 24.1126 27.9672 23.9132C27.2651 23.655 26.7165 23.843 26.0313 24.0221C25.3554 24.1987 24.6789 24.4029 24.0052 24.5908C23.6071 24.702 23.2083 24.8126 22.8082 24.9165C22.6593 24.9552 22.2635 25.0699 22.1169 25.0613L21.9825 25.0533L21.9214 24.9334C21.599 24.2995 21.4855 24.0518 20.8506 23.6789C20.7687 23.6308 20.6638 23.5892 20.5759 23.5531C20.4117 23.4858 20.245 23.4234 20.0785 23.3622C19.6262 23.1962 19.1695 23.04 18.7132 22.8856C17.8879 22.6063 17.0552 22.3421 16.2325 22.0568C15.8729 21.9321 15.7474 21.6628 15.4894 21.4287C14.5548 20.5807 13.1069 20.1477 11.8656 20.4047C11.0443 20.5748 10.1947 21.1089 9.63511 21.724C9.44651 21.9312 9.26459 22.2441 9.05274 22.4155L8.9919 22.4647L8.91363 22.4676C7.24993 22.5278 5.58168 22.4797 3.91729 22.4711C3.68039 22.4699 3.38848 22.4767 3.31826 22.7467C3.28281 22.883 3.2865 23.0565 3.29069 23.1967C3.29728 23.4199 3.3118 23.6415 3.3118 23.8651V28.8086C3.3118 29.0452 3.29895 29.2803 3.29193 29.5164C3.28701 29.681 3.28221 29.8673 3.3112 30.0297C3.35864 30.2949 3.49265 30.3548 3.75369 30.3622C4.57544 30.3856 5.39822 30.3617 6.22023 30.3617C6.41799 30.3617 7.06081 30.3994 7.22488 30.3114C7.39832 30.2183 7.38753 29.6999 7.38753 29.5426V29.3277L7.60157 29.3088L7.60148 29.3089ZM15.6198 22.5656L18.4002 23.5185C18.709 23.6313 19.0223 23.7216 19.3308 23.8275C19.7966 23.9872 20.2574 24.1136 20.6725 24.3919C21.2334 24.7677 21.4712 25.301 21.261 25.9679C21.1496 26.3216 20.8884 26.6094 20.5544 26.7673C20.0989 26.9827 19.7615 26.8783 19.3124 26.7435C18.0417 26.3619 16.7817 25.9464 15.5187 25.5405C15.2125 25.4421 14.8964 25.2985 14.5777 25.249C14.3639 25.2158 14.1656 25.2173 14.0826 25.4471C13.9973 25.6832 14.1411 25.7859 14.3426 25.8818C14.643 26.0247 14.9939 26.0822 15.3093 26.187C16.5625 26.6037 17.832 26.97 19.0846 27.389C19.7838 27.6229 20.2178 27.6837 20.8992 27.3582C21.4126 27.1131 21.7522 26.6714 21.9285 26.1362C22.0485 25.7718 22.1138 25.8072 22.443 25.7248C22.6115 25.6827 22.7765 25.6284 22.9426 25.5854L25.8754 24.7725C26.579 24.5927 27.4107 24.2251 28.0629 24.7443C28.7452 25.2872 28.7412 26.222 28.1226 26.8112C27.5059 27.3985 25.3839 27.9733 24.5078 28.3088C22.6906 29.0047 20.8415 29.6289 19.0069 30.2778C17.2125 30.9124 16.6897 30.9267 14.9214 30.1107C14.3508 29.8474 13.8015 29.548 13.2435 29.26C12.4788 28.8655 11.6442 28.2556 10.815 28.0422C10.4638 27.9518 10.0985 27.9276 9.74206 27.8612L9.56468 27.8281L9.55106 27.6481C9.52957 27.3638 9.52747 27.0707 9.52482 26.7855C9.52118 26.3874 9.52285 25.9891 9.52546 25.5909C9.53047 24.8308 9.54426 24.0694 9.54139 23.3094C9.54019 22.9805 9.54935 22.9742 9.72455 22.7078C10.0998 22.1369 10.6055 21.6547 11.2237 21.3563C11.8856 21.0367 12.6033 20.9627 13.3224 21.103C13.9715 21.2295 14.5412 21.4875 15.0263 21.9404C15.1738 22.0782 15.3018 22.2248 15.4338 22.3768C15.4705 22.4191 15.5656 22.532 15.6199 22.5656H15.6198ZM7.38681 23.1769L8.83276 23.1614L8.85399 28.6098L7.40085 28.6069L7.38681 23.177V23.1769ZM3.98224 23.5584L4.01054 23.1648L6.62919 23.1652L6.69205 23.5471L6.68734 29.6599H3.97971L3.98224 23.5584V23.5584Z" fill="#F68A29" stroke="#F68A29" stroke-width="0.0368209" stroke-miterlimit="2.61313"/>
<path fill-rule="evenodd" clip-rule="evenodd" d="M5.01984 9.46388C5.05148 9.51303 5.11442 9.57978 5.15167 9.62161C5.25237 9.73459 5.35688 9.84484 5.46148 9.95424C5.75579 10.2617 6.05652 10.5639 6.35769 10.8647C6.86821 11.3745 7.38674 11.8766 7.89671 12.3866L15.2905 19.7808C15.42 19.9104 15.5449 20.0449 15.6739 20.1752C15.7652 20.2674 15.9033 20.4126 16.0108 20.4822C16.3104 20.6762 16.5265 20.3724 16.7228 20.1765C16.9651 19.9346 17.2073 19.6927 17.452 19.4533C17.9539 18.9621 18.4436 18.458 18.9402 17.9615L21.9022 14.9995C22.5346 14.367 22.4154 14.6585 23.182 14.5807C24.2569 14.4717 25.1714 13.8649 25.8679 13.0653C25.964 12.955 26.0525 12.8431 26.1379 12.7246C26.1927 12.6484 26.2459 12.5683 26.3257 12.5157C26.4193 12.4539 26.5159 12.4473 26.6245 12.4497C26.7558 12.4526 26.8853 12.4595 27.0171 12.4595L31.4494 12.4598C31.5859 12.4598 31.8288 12.4575 31.9489 12.3844C32.055 12.3198 32.0671 12.1704 32.0689 12.059C32.0903 10.7494 32.0865 9.43395 32.0851 8.12415C32.0843 7.37848 32.0822 6.63256 32.0732 5.88694C32.0701 5.63116 32.0664 5.37504 32.0588 5.1193C32.056 5.02237 32.0574 4.87928 32.0425 4.78162C31.9955 4.66474 31.9131 4.62402 31.7898 4.60128C31.595 4.56545 31.351 4.58613 31.151 4.58617C30.6538 4.58634 30.1566 4.58617 29.6594 4.58617C29.3017 4.58617 28.9425 4.57444 28.5854 4.57825C28.4723 4.57945 28.2397 4.58065 28.1358 4.62903C28.0806 4.65472 28.0666 4.71346 28.0533 4.76886C28.0082 4.95716 28.0007 5.20558 27.9857 5.40013L27.9729 5.56621L27.812 5.60894C27.3413 5.73396 26.8592 5.61292 26.385 5.6217C26.0059 5.62876 25.844 5.723 25.8277 6.12619L25.8199 6.31697L25.6315 6.34822C25.2855 6.40555 24.6132 6.22535 24.2922 6.07699C23.8194 5.85838 23.3493 5.58834 22.8938 5.33454C22.401 5.05992 21.9064 4.77764 21.4022 4.52465C19.8713 3.7562 18.6475 3.19083 16.9014 3.72627C16.5412 3.83669 16.1903 3.99104 15.8377 4.12394C15.4715 4.26189 15.1014 4.38935 14.7325 4.51994C14.4588 4.61687 14.1998 4.80449 13.9067 4.65823C13.7565 4.5833 13.6055 4.43028 13.4878 4.31185C13.2485 4.07111 13.0158 3.82205 12.7791 3.57843C12.5345 3.32677 12.2778 3.08666 12.0316 2.83632C11.7699 2.5704 11.6193 2.59103 11.3623 2.84467C10.8691 3.33122 10.3874 3.82929 9.89331 4.31507C9.39229 4.80757 8.89974 5.30846 8.40275 5.80499L5.439 8.76595C5.26517 8.93956 4.92107 9.17423 5.01997 9.46383L5.01984 9.46388ZM10.2202 5.05093C10.2995 4.81134 11.2826 3.86508 11.5238 3.66214L11.618 3.58293L11.7367 3.6153C11.9455 3.67228 12.0416 3.81961 12.186 3.96381C12.4085 4.18619 13.111 4.7904 13.1764 5.05791L13.2131 5.2078L13.09 5.30084C12.7213 5.57957 12.1313 5.69106 11.6735 5.68853C11.1287 5.68553 10.8155 5.56347 10.3416 5.33633L10.1553 5.24702L10.2202 5.05089L10.2202 5.05093ZM14.6587 5.27395L17.5554 4.26951L17.5729 4.26626C18.789 4.04161 19.5973 4.42549 20.6571 4.92488C21.462 5.30418 22.247 5.72745 23.0183 6.17067C23.3906 6.38453 23.7595 6.61124 24.1621 6.76477C24.3695 6.84377 24.5973 6.91805 24.8157 6.95744C25.0465 6.9991 25.5847 7.00535 25.7371 7.17396C25.8134 7.25851 25.8112 7.39758 25.8166 7.50504C25.8244 7.65841 25.8281 7.8125 25.8314 7.96603C25.8416 8.42963 25.8451 8.89384 25.8473 9.35757C25.8497 9.85204 25.8499 10.3466 25.8469 10.8412C25.845 11.1486 25.8473 11.4655 25.8317 11.7724C25.8042 12.3135 24.89 13.1121 24.4566 13.4002C23.497 14.0384 22.4521 14.0431 21.3984 13.6434C20.9709 13.4812 20.5876 13.256 20.2654 12.9295C20.1636 12.8263 20.0727 12.7172 19.9829 12.6035C19.9342 12.5417 19.8772 12.4631 19.8193 12.4103C19.7211 12.3205 19.372 12.2366 19.2383 12.19C18.3517 11.8802 17.4633 11.5767 16.5719 11.2808C16.1227 11.1317 15.6677 10.992 15.2253 10.824C14.6579 10.6085 14.1465 10.196 14.0601 9.56158C13.9934 9.07297 14.2134 8.5794 14.6148 8.2961C15.1852 7.89346 15.6566 8.06956 16.2555 8.25927L20.362 9.56017C20.5506 9.61989 20.8144 9.71563 21.0114 9.71426C21.1675 9.71319 21.2377 9.64738 21.2921 9.50065C21.349 9.34716 21.3297 9.25211 21.199 9.15659C21.0481 9.04613 20.8137 8.98071 20.6365 8.92586C20.1692 8.7811 19.7009 8.6411 19.2418 8.48195L17.1982 7.83926C16.8777 7.73847 16.8104 7.60493 16.5976 7.39629C16.2764 7.08117 15.9537 6.76798 15.6348 6.45051C15.476 6.29244 14.8418 5.68609 14.7624 5.50734L14.6586 5.27395H14.6587ZM13.9086 5.74731C14.0778 5.82973 14.4304 6.19358 14.5718 6.33388C14.7718 6.53233 14.9968 6.75047 15.1787 6.96485L15.3303 7.1436L15.1518 7.29542C15.0985 7.34076 15.0743 7.35468 15.0102 7.38268C14.7836 7.4818 14.5416 7.54379 14.3232 7.66128C14.0476 7.8095 13.8544 8.02567 13.6899 8.28907C13.5867 8.45438 13.5077 8.61614 13.2995 8.6563C13.0802 8.69864 12.9604 8.73105 12.7459 8.82405C12.4855 8.93704 12.2099 9.11082 11.9954 9.29527C10.9672 10.1794 10.6424 11.6281 11.2056 12.8641C11.7216 13.9962 12.9857 14.7641 14.2341 14.6147C15.5514 14.4572 16.4695 13.6734 16.8631 12.4149L16.9091 12.2679L17.0623 12.2516C17.3484 12.2211 18.7427 12.7274 19.086 12.8627L19.2506 12.9276L19.2335 13.1037C19.1417 14.0506 19.1279 14.5641 19.5669 15.4404C19.6474 15.6012 19.7524 15.7222 19.8201 15.8957L19.8682 16.0189L19.7877 16.1239C19.7126 16.2218 19.6125 16.3219 19.5268 16.411C19.3926 16.5506 19.256 16.6882 19.1185 16.8247C18.9853 16.957 18.851 17.0886 18.7146 17.2176C18.641 17.2873 18.5344 17.395 18.4502 17.4491L18.3422 17.5186L18.2255 17.4652C17.9176 17.3243 17.6491 17.1122 17.3254 17.0075C16.9578 16.8885 16.58 16.8188 16.1929 16.8198C15.7203 16.8211 15.2826 16.908 14.8551 17.11C14.7164 17.1755 14.5863 17.2505 14.4532 17.3259C14.346 17.3866 14.2235 17.456 14.1012 17.4769L13.9818 17.4974L12.4724 15.9948C11.7278 15.2537 10.9909 14.5037 10.249 13.7597C9.79004 13.2995 9.33068 12.8395 8.86853 12.3824C8.70832 12.224 8.5478 12.0657 8.38566 11.9092C8.31836 11.8443 8.23465 11.7566 8.16153 11.6998L8.0383 11.6079L8.07375 11.4579C8.10437 11.3283 8.2186 11.1492 8.28385 11.0292C8.39628 10.8224 8.49377 10.6138 8.56861 10.3902C8.80478 9.68463 8.7722 8.96444 8.5508 8.2585C8.44085 7.90815 8.25829 7.6707 8.09666 7.35027L8.04593 7.24961L8.09276 7.14707C8.17398 6.96917 9.29767 5.84331 9.47924 5.7498L9.57793 5.69898L9.67983 5.74308C9.97671 5.87135 10.2466 6.04753 10.5406 6.17337C10.907 6.33016 11.2816 6.37366 11.6776 6.37811C12.0712 6.38256 12.4345 6.34266 12.801 6.19413C13.1109 6.0686 13.4023 5.88612 13.7075 5.7453L13.8086 5.69868L13.9087 5.74744L13.9086 5.74731ZM5.87726 9.28987L7.48381 7.69476L7.64077 7.93868C7.92232 8.37633 8.04798 8.8553 8.04798 9.37533C8.04798 9.98952 7.8944 10.1867 7.68272 10.7121L7.57231 10.9862L7.33036 10.8166C7.06957 10.6338 6.85751 10.3765 6.63478 10.1506C6.41814 9.93086 6.12811 9.71254 5.97064 9.44722L5.87721 9.28983L5.87726 9.28987ZM26.5237 6.36252L26.9259 6.34155L27.5773 6.34313L27.9878 6.35409L27.9878 11.7847L26.5237 11.789V6.36252ZM28.6881 5.66387L28.701 5.26753L31.3754 5.26761L31.3979 5.66096L31.3963 11.7889H28.688L28.6881 5.66387V5.66387ZM13.3248 9.56466C13.3767 9.65059 13.4018 9.76157 13.4273 9.8582C13.4582 9.97522 13.4918 10.0876 13.5389 10.1994C13.6924 10.5637 13.9543 10.8498 14.2666 11.0871C14.7056 11.4207 15.5166 11.6744 16.0514 11.8243L16.2337 11.8753L16.2224 12.0643C16.179 12.7858 15.5692 13.4148 14.9456 13.7103C14.1109 14.1057 13.2101 13.9885 12.4876 13.4164C11.738 12.823 11.4526 11.94 11.7005 11.0206C11.8736 10.3787 12.3815 9.60504 13.0747 9.45638L13.2384 9.42127L13.3249 9.5647L13.3248 9.56466ZM14.7776 17.9573C14.9293 17.784 15.1783 17.7042 15.3905 17.6323C15.9952 17.4277 17.1646 17.4654 17.6311 17.9489L17.79 18.1137L16.3073 19.6179L16.1764 19.5842C15.9678 19.5305 15.5229 19.0658 15.3659 18.9057C15.2314 18.7685 15.0988 18.629 14.969 18.4873C14.9098 18.4226 14.7893 18.2997 14.7482 18.2245L14.6696 18.0807L14.7776 17.9574L14.7776 17.9573Z" fill="#F68A29" stroke="#F68A29" stroke-width="0.0368209" stroke-miterlimit="2.61313"/>
</svg>
