<svg width="35" height="35" viewBox="0 0 35 35" fill="none" xmlns="http://www.w3.org/2000/svg">
<path fill-rule="evenodd" clip-rule="evenodd" d="M13.9644 15.7349L13.9644 16.0797L14.5491 16.0819L14.5781 17.2477L13.9644 17.259L13.9644 17.6039L14.5527 17.606L14.5735 20.1776H15.2902L15.2967 17.6259L16.6036 17.5963L17.4212 20.1778L18.6862 20.1776L18.6975 17.6165L19.2908 17.6054V17.2597L18.7012 17.2552L18.6976 16.0924L19.2908 16.0813V15.7355L18.7011 15.731L18.6946 13.1616H17.9716L17.9704 15.7299L16.6607 15.7356L15.8333 13.1653L14.5728 13.1622L14.5722 15.7237L13.9644 15.7349Z" fill="#F68A29"/>
<path fill-rule="evenodd" clip-rule="evenodd" d="M27.9846 13.9842C27.9846 14.3023 27.926 15.2292 28.0141 15.4872C28.113 15.7768 28.4938 15.9374 28.7731 15.8187C28.8333 15.7844 28.9403 15.6834 28.9964 15.6333C29.153 15.4932 29.3059 15.3479 29.4575 15.2024C29.8864 14.7908 30.3079 14.3705 30.7276 13.9496C31.4158 13.2596 32.0932 12.558 32.7823 11.8697C32.9408 11.7114 33.3905 11.2786 33.3636 11.0247C33.3399 10.8004 32.9002 10.3804 32.7494 10.2217C32.4881 9.94659 32.2164 9.68238 31.9442 9.41808C31.7403 9.22002 31.5415 9.01027 31.3426 8.8069C31.0069 8.46365 30.6707 8.12092 30.3319 7.78067C29.9976 7.445 29.6608 7.10954 29.3159 6.78483C29.2069 6.68225 28.8713 6.35634 28.7487 6.29691C28.4472 6.18923 28.1023 6.35621 28.0098 6.66606C27.9671 6.80928 27.9742 7.18721 27.9745 7.34429C27.9749 7.61664 27.9846 7.88903 27.9846 8.16108V8.38132L25.9695 8.35803V8.14284C25.9695 7.181 25.9695 6.21912 25.9695 5.25728C25.9695 3.69316 26.1786 2.13281 24.5156 1.29813C23.7217 0.89969 22.9415 1.00673 22.088 1.00673C18.2694 1.00673 14.4507 1.00339 10.6321 1.006C9.19454 1.00698 7.96643 2.18281 7.96647 3.63292L7.96737 21.0272L5.95262 21.0062V20.7907C5.95262 20.5092 5.99844 19.4937 5.9185 19.2823C5.80234 18.9751 5.41988 18.8308 5.12792 18.9699C5.06682 19.009 4.96959 19.1046 4.91098 19.1585C4.7562 19.3006 4.60446 19.4465 4.45354 19.5927C4.025 20.0076 3.60208 20.429 3.18043 20.851C2.49826 21.5336 1.82136 22.2209 1.14359 22.9077C0.987876 23.0655 0.566619 23.4666 0.571328 23.7092C0.576295 23.9645 1.03673 24.4029 1.20315 24.5693L3.6121 26.9781C3.87982 27.2458 4.13949 27.5209 4.40914 27.7874C4.54003 27.9168 5.02786 28.4051 5.17566 28.4686C5.46025 28.5627 5.85359 28.3977 5.93421 28.0963C5.97643 27.9385 5.9656 27.5825 5.96423 27.413C5.96191 27.1429 5.94911 26.8673 5.95566 26.5978L5.96084 26.3857L7.94374 26.3837L7.95774 26.5866C7.98745 27.0175 7.97807 27.4642 7.9699 27.8961C7.95979 28.4294 7.94314 28.9627 7.93629 29.4961C7.92811 30.1347 7.90251 31.4729 8.14047 32.0531C8.40092 32.6883 8.79396 33.1189 9.39093 33.4534C10.1073 33.8547 11.0211 33.7589 11.8122 33.7589C15.6309 33.7589 19.4495 33.7604 23.2682 33.7596C24.7493 33.7593 25.9597 32.6106 25.9704 31.1179C26.0114 25.399 25.9694 19.6799 25.9694 13.9608V13.7399L27.9845 13.7697V13.9842H27.9846ZM9.12102 5.02068C9.0687 4.26358 8.99682 3.00435 9.68306 2.48372C10.2149 2.08031 11.2223 2.1507 11.8614 2.1507H22.1373C22.9324 2.1507 23.8109 1.99845 24.4089 2.65618C24.9512 3.25272 24.8535 4.26302 24.8195 5.01546L24.8102 5.22337H9.13507L9.12102 5.02068V5.02068ZM31.7913 11.1596C31.7287 11.2796 31.5019 11.5035 31.4052 11.6048C31.1742 11.8468 30.9382 12.0847 30.7018 12.3214C30.4581 12.5652 30.213 12.8078 29.9662 13.0485C29.8162 13.1948 29.6639 13.3472 29.5079 13.4869L29.1941 13.7679L29.1463 13.3494C29.0984 12.9293 29.0429 12.5982 28.5319 12.5982H22.2847C21.4619 12.5982 21.4534 13.742 22.2847 13.742H24.8256L24.8131 28.3986H9.11058L9.12231 26.3839H9.33874C9.782 26.3839 11.7008 26.4588 11.9711 26.322C12.485 26.0356 12.3288 25.2399 11.6647 25.2399H5.4206C4.92917 25.2399 4.81862 25.5324 4.79405 25.9767L4.77178 26.3782L4.44772 26.14C4.16561 25.9327 2.21226 23.9907 2.12453 23.7776L2.06943 23.6438L4.69373 21.0043L4.77375 21.4046C4.80869 21.5795 4.8092 21.7495 4.89419 21.9137C5.00149 22.1209 5.19942 22.174 5.42065 22.174H11.6647C12.4851 22.174 12.4659 21.0237 11.6647 21.0237H9.11224L9.08673 6.367H24.8255L24.8256 8.3817H22.2848C21.4566 8.3817 21.4612 9.52598 22.2848 9.52598H28.529C28.9869 9.52598 29.1284 9.23621 29.1287 8.81371L29.129 8.43621L29.4556 8.62553C29.5107 8.65743 29.5403 8.6767 29.5901 8.71425C29.7555 8.83905 29.932 9.02187 30.0803 9.168C30.321 9.40524 30.5579 9.64667 30.7934 9.88905C31.014 10.1164 31.2335 10.3449 31.4509 10.5754C31.5322 10.6615 31.7255 10.8487 31.7845 10.9458L31.8483 11.0507L31.7914 11.1596H31.7913ZM24.8257 29.7664C24.8257 30.5261 24.9768 31.5522 24.3866 32.1402C23.7541 32.7706 22.8972 32.6151 22.0881 32.6151C18.6792 32.6151 15.2703 32.6151 11.8614 32.6151C11.0661 32.6151 10.1752 32.7692 9.55508 32.1462C8.95828 31.5467 9.11126 30.5361 9.10852 29.7672L9.10771 29.5487H24.8257V29.7664H24.8257Z" fill="#F68A29"/>
</svg>
