<svg width="35" height="35" viewBox="0 0 35 35" fill="none" xmlns="http://www.w3.org/2000/svg">
<path fill-rule="evenodd" clip-rule="evenodd" d="M12.3279 26.9604C12.5391 27.0239 12.6572 27.2079 13.2085 27.2927C13.4522 27.3301 20.2873 27.3403 20.6133 27.2999C21.0675 27.2436 21.1983 27.1248 21.5376 26.9581C21.5643 27.3769 21.2969 27.7048 21.0337 27.8794C20.6599 28.1274 20.282 28.0746 19.8071 28.0746H14.0773C13.5836 28.0746 13.2113 28.1236 12.8462 27.8839C12.5741 27.7054 12.3401 27.4089 12.328 26.9604L12.3279 26.9604ZM14.3806 14.2262C14.6109 14.5276 14.7701 15.1992 15.1508 15.502C15.5961 15.8562 16.259 15.7548 16.9422 15.7548C18.3036 15.7548 18.6322 15.8917 19.1439 14.9047C19.2234 14.7512 19.401 14.3418 19.5038 14.2232C20.3276 14.1709 20.9668 14.1528 21.3581 14.7224C21.5686 15.0289 21.5525 15.279 21.5522 15.7002L21.5524 25.2051C21.5525 25.6261 21.5047 25.8763 21.2719 26.131C20.7852 26.6634 20.1614 26.5378 19.3353 26.5378C17.7511 26.5378 16.167 26.5378 14.5829 26.5378C13.7478 26.5378 13.085 26.6647 12.6061 26.1375C12.1841 25.6729 12.3235 24.75 12.3235 24.0591V16.9136C12.3235 15.2169 11.9698 13.9962 14.3806 14.2262L14.3806 14.2262ZM18.598 14.2197C18.5325 14.4459 18.3317 14.8946 18.0993 14.9612C17.9737 14.9972 15.8701 15.0014 15.7392 14.9502C15.5409 14.8727 15.3414 14.4243 15.2689 14.2179L18.598 14.2196V14.2197ZM14.3031 9.19522C14.3933 8.82761 14.8645 8.26502 15.098 7.99092C16.0857 6.83132 17.9068 6.2653 19.5352 6.63899C21.0689 6.99093 22.2521 8.10481 22.7809 9.45344C22.9431 9.86725 23.1522 10.6858 23.0736 11.1838C22.8824 11.2461 22.674 11.2648 22.4756 11.3317C22.105 11.4567 21.1472 11.791 21.1318 12.1967C21.1241 12.3995 21.2705 12.5763 21.461 12.5976C21.763 12.6315 22.0455 12.237 23.0716 11.9871C24.8368 11.5573 26.4519 12.5879 27.1405 13.7243C28.7021 16.3014 26.9279 19.5856 23.8181 19.5947C23.3868 19.596 22.7632 19.6304 22.3542 19.587C22.3125 19.3779 22.3403 17.1497 22.3403 16.7451C22.3403 15.7997 22.4617 14.8837 21.9615 14.2211C21.4295 13.5164 20.8952 13.4327 19.8408 13.4328H14.0436C13.2304 13.4327 12.4803 13.4313 11.9201 14.2167C11.398 14.9485 11.5299 15.741 11.5299 16.7114C11.5299 17.1621 11.5834 19.337 11.5066 19.5948C9.76424 19.5948 8.43145 19.7535 7.11108 18.2848C4.9821 15.9168 6.58244 11.7069 10.3373 11.9168C11.6365 11.9894 12.0902 12.7394 12.5106 12.5799C12.6883 12.5125 12.7773 12.3074 12.7241 12.1042C12.6605 11.8615 12.0994 11.6136 11.8629 11.5063C11.7542 11.457 11.7066 11.4368 11.6 11.4014L11.3474 11.2849C12.0375 10.1094 13.9842 9.52751 15.427 10.4064C15.538 10.474 15.7139 10.626 15.8336 10.6496C16.3017 10.7419 16.4842 10.2142 16.1483 9.95527C15.2811 9.28684 14.5064 9.3133 14.3031 9.19513L14.3031 9.19522ZM5.38135 15.5992V15.9025C5.38135 17.4542 6.25439 18.6708 7.17029 19.4064C8.45564 20.4389 9.6185 20.3776 11.5188 20.3776C11.5545 20.7099 11.5298 25.1145 11.5298 25.5759C11.5298 26.4448 11.4293 27.2206 11.8005 27.886C12.0949 28.4135 12.7047 28.8453 13.4369 28.8453H20.4475C21.2071 28.8453 21.7677 28.4029 22.0776 27.8818C22.449 27.2573 22.3403 26.334 22.3403 25.5423C22.3403 25.18 22.3087 20.6103 22.3558 20.3765C23.2064 20.2957 24.0439 20.4567 24.8896 20.2686C25.5354 20.125 26.2332 19.7864 26.6937 19.4188C27.5746 18.7157 28.4946 17.4713 28.4946 15.9026V15.5993C28.4946 14.317 27.8222 13.1387 27.1072 12.4456C26.2682 11.6322 25.3514 11.2026 23.8873 11.1167C23.8162 10.2594 23.738 9.62654 23.3956 8.91273C21.6799 5.3348 17.1824 4.65135 14.4798 7.50886C14.2441 7.75813 14.0606 8.02941 13.8741 8.31927L13.5091 9.0309C13.4597 9.16054 13.4782 9.20627 13.3532 9.24343C12.9098 9.37509 12.9511 9.25174 12.2239 9.56694C11.6374 9.82118 11.04 10.3431 10.6786 10.884C10.5293 11.1073 10.5913 11.1702 10.2567 11.1351C7.9273 10.8913 5.38139 12.9704 5.38139 15.5994L5.38135 15.5992Z" fill="#F68A29"/>
<path fill-rule="evenodd" clip-rule="evenodd" d="M14.6172 22.4742C14.3751 22.3845 14.1862 21.9196 13.8724 21.9061C13.5929 21.8941 13.2431 22.2487 13.6426 22.6403C13.8646 22.8578 14.0841 23.084 14.2975 23.2988C14.5422 23.5452 14.7742 23.8597 15.0537 23.8367C15.2453 23.821 15.3536 23.668 15.4624 23.5565L16.4231 22.5963C16.7366 22.2406 16.4354 21.8642 16.1081 21.9102C15.8302 21.9494 15.5924 22.4148 15.4047 22.4705L15.4041 18.5313C15.4042 18.1512 15.4512 17.6457 14.9916 17.6704C14.5395 17.6946 14.6215 18.2171 14.6215 18.5988C14.6216 19.7629 14.6657 21.4202 14.6172 22.4741V22.4742Z" fill="#F68A29"/>
<path fill-rule="evenodd" clip-rule="evenodd" d="M18.4642 19.0255C18.5234 19.8979 18.4715 21.8778 18.4715 22.9466C18.4715 23.3169 18.3848 23.8377 18.8628 23.8375C19.3494 23.8374 19.2463 23.2677 19.2463 22.8792C19.2463 21.8751 19.1927 19.791 19.2524 19.0217C19.4558 19.1662 19.7185 19.5621 19.9495 19.5982C20.3369 19.659 20.5736 19.232 20.2675 18.9139C20.0428 18.6805 19.8358 18.4862 19.609 18.2574C18.9013 17.5438 18.9267 17.408 18.1485 18.222C17.9244 18.4565 17.7209 18.6547 17.4921 18.8794C17.1256 19.2392 17.3929 19.6061 17.7183 19.603C18.0017 19.6004 18.2095 19.2106 18.4643 19.0254L18.4642 19.0255Z" fill="#F68A29"/>
<path fill-rule="evenodd" clip-rule="evenodd" d="M18.3402 7.31078C17.9207 7.48778 18.0518 8.0043 18.4579 8.04613C19.3052 8.13335 19.7469 8.20613 20.4436 8.76119C20.642 8.9193 20.8957 9.37558 21.2623 9.22971C21.4254 9.1648 21.5215 8.98601 21.4902 8.79625C21.4427 8.50789 20.7125 7.96106 20.4487 7.81026C19.9578 7.52957 18.8124 7.11161 18.3402 7.31074V7.31078Z" fill="#F68A29"/>
</svg>
