<svg width="35" height="35" viewBox="0 0 35 35" fill="none" xmlns="http://www.w3.org/2000/svg">
<path fill-rule="evenodd" clip-rule="evenodd" d="M4.86545 25.6385L17.5525 25.6227C17.723 26.4275 17.2456 27.5616 18.1249 28.965C18.2115 29.1033 18.302 29.2214 18.3958 29.3296C18.4539 29.3966 18.6754 29.612 18.7065 29.6642C18.2501 29.7234 8.69201 29.6774 7.52543 29.6777C6.85957 29.6779 6.29458 29.4856 5.83444 29.1209C5.44547 28.8125 5.07589 28.3139 4.93756 27.7601C4.84366 27.384 4.80637 26.0563 4.86541 25.6385L4.86545 25.6385ZM24.5457 5.65522C26.1219 5.4947 27.5942 6.28139 28.4589 7.04799C30.6205 8.96469 30.7879 12.3685 28.7876 14.6083C28.0295 15.4571 26.6273 16.2963 25.1606 16.3353C19.8989 16.4753 17.8802 10.5367 20.9115 7.36469C21.9558 6.27201 22.9863 5.81393 24.5457 5.65517L24.5457 5.65522ZM19.1116 13.4726L15.1953 13.4717C14.9485 13.4707 14.8133 13.4604 14.6658 13.6111C14.5327 13.747 14.5181 13.9904 14.6021 14.1459C14.7697 14.4558 15.2859 14.3697 15.6705 14.3697C16.7858 14.3697 18.689 14.3185 19.6315 14.3771C20.0386 15.2579 21.351 16.2606 22.32 16.705C22.7407 16.8979 23.1359 16.9804 23.6005 17.1197C23.6573 17.5131 23.6148 24.6928 23.6148 25.2932C23.6148 26.7835 23.8054 27.7995 23.0118 28.7592C21.5928 30.4751 18.4794 29.7158 18.4741 26.9538C18.4692 24.4145 18.8297 24.7338 16.5799 24.7338C16.0577 24.7338 8.72463 24.7792 8.42257 24.717L8.51428 9.76161L18.6874 9.75664C18.7039 9.99062 18.6223 10.4779 18.6042 10.7485C18.583 11.0676 18.6123 11.4555 18.6475 11.771C18.7466 12.6598 19.0202 13.0438 19.1116 13.4726V13.4726ZM24.5188 17.2317C27.0297 17.2435 29.0301 16.2039 30.2548 14.0972C31.4917 11.9697 31.2857 9.11694 29.8897 7.31888C29.2547 6.50094 28.5674 5.82639 27.4591 5.31698C25.182 4.27032 22.6594 4.66644 20.7455 6.29051C19.4066 7.42664 19.1638 8.57126 18.94 8.86502H8.7117C8.09311 8.86502 7.61709 8.74548 7.61829 9.4759C7.61949 10.2624 7.5545 24.3703 7.50436 24.726C6.71922 24.795 5.6157 24.7357 4.79738 24.7336C4.28908 24.7323 3.96878 24.7091 3.9651 25.2514C3.95576 26.6272 3.83284 27.813 4.43778 28.8561C4.74985 29.3942 5.25404 29.8801 5.81544 30.1654C6.58486 30.5563 7.10468 30.5726 8.11863 30.5726H16.224C17.1889 30.5726 20.9117 30.6301 21.5719 30.5223C22.9693 30.2943 24.0987 29.2745 24.409 27.9432C24.5905 27.1643 24.5115 26.177 24.5115 25.3327V19.9159C24.5115 19.069 24.4616 18.0585 24.5188 17.2317V17.2317Z" fill="#F68A29"/>
<path fill-rule="evenodd" clip-rule="evenodd" d="M24.851 10.1181C25.007 9.90449 25.1281 9.73777 25.2758 9.51543C25.374 9.36755 25.5662 9.01822 25.7379 8.95828C25.3436 11.6077 24.882 11.3134 26.4075 11.3529C26.3164 11.5535 24.8349 13.6722 24.7245 13.7466C24.7198 13.7387 24.7164 13.7259 24.7152 13.7205L24.8374 12.9478C25.222 11.0246 25.1906 11.399 24.0127 11.3458L24.851 10.1181L24.851 10.1181ZM24.3961 11.9483C24.4231 12.1385 24.2095 13.0105 24.1594 13.2619C23.9625 14.2531 23.8172 14.3452 24.8037 14.3452C25.2001 14.3452 25.3214 13.9527 25.7041 13.4223C25.968 13.0564 26.2228 12.6962 26.4696 12.329L27.2385 11.2404C27.3926 10.9714 27.2429 10.7616 26.9403 10.7513C26.6275 10.7406 26.3107 10.774 25.9993 10.743C26.0684 10.3037 26.1792 9.83941 26.2674 9.3997C26.4555 8.46132 26.5893 8.35596 25.6339 8.35596C25.2213 8.35596 25.1059 8.74788 24.7207 9.27759C24.4495 9.65051 24.1979 10.0104 23.9558 10.3705L23.1865 11.4596C22.7901 12.108 23.9629 11.9484 24.3961 11.9484V11.9483Z" fill="#F68A29"/>
<path fill-rule="evenodd" clip-rule="evenodd" d="M14.8798 21.1816C14.635 21.2738 14.464 21.4724 14.5824 21.7946C14.6849 22.0735 14.9652 22.0531 15.2756 22.0516C16.187 22.0474 20.7573 22.1014 20.9907 22.0287C21.1944 21.9652 21.3796 21.7013 21.249 21.4173C21.1341 21.1675 20.8904 21.1561 20.5743 21.1579C19.7137 21.1629 15.0496 21.1176 14.8799 21.1816H14.8798Z" fill="#F68A29"/>
<path fill-rule="evenodd" clip-rule="evenodd" d="M20.7313 17.3306H15.1168C14.5789 17.3306 14.4637 17.6532 14.586 17.955C14.7162 18.2766 15.1365 18.2302 15.5122 18.2301H20.336C20.6969 18.2302 21.0812 18.2742 21.2399 17.9748C21.4428 17.5918 21.1305 17.3306 20.7313 17.3306V17.3306Z" fill="#F68A29"/>
<path fill-rule="evenodd" clip-rule="evenodd" d="M11.9998 13.5114C12.6027 13.268 12.9828 14.1703 12.3607 14.3899C11.77 14.5985 11.2806 13.8018 11.9998 13.5114ZM11.9056 12.6197C9.98036 13.0477 10.7055 15.6304 12.4398 15.2937C13.1152 15.1626 13.7176 14.5066 13.5502 13.6838C13.4149 13.0188 12.7391 12.4344 11.9056 12.6197V12.6197Z" fill="#F68A29"/>
<path fill-rule="evenodd" clip-rule="evenodd" d="M12.6533 17.9391C12.3717 18.5341 11.4632 18.1641 11.6732 17.6162C11.9089 17.0012 12.9228 17.3695 12.6533 17.9391ZM11.9626 16.4245C10.0142 16.7547 10.6386 19.4448 12.413 19.1136C13.1191 18.9819 13.7083 18.3415 13.5547 17.5277C13.4271 16.8522 12.7607 16.2893 11.9627 16.4245L11.9626 16.4245Z" fill="#F68A29"/>
<path fill-rule="evenodd" clip-rule="evenodd" d="M11.6523 21.6949C11.5005 21.1054 12.5289 20.8529 12.6777 21.4823C12.8252 22.1058 11.8026 22.2791 11.6523 21.6949V21.6949ZM11.9444 20.2486C10.041 20.598 10.62 23.2321 12.4129 22.9354C13.1017 22.8214 13.7007 22.1589 13.5575 21.3646C13.431 20.6634 12.7638 20.0981 11.9444 20.2486Z" fill="#F68A29"/>
</svg>
