<svg width="35" height="35" viewBox="0 0 35 35" fill="none" xmlns="http://www.w3.org/2000/svg">
<path fill-rule="evenodd" clip-rule="evenodd" d="M6.77645 17.9185C6.57393 17.8992 6.25599 17.8061 6.08468 17.723C5.8269 17.5979 5.70795 17.4677 5.94729 17.2069C6.15066 16.9853 6.35682 17.1382 6.51164 17.2944C6.65434 17.4384 6.75795 17.6682 6.77645 17.9185ZM23.5929 16.076C21.8368 16.0784 21.1978 14.6951 21.4734 13.0609C21.5583 12.5573 21.7228 12.5692 22.136 12.387C22.8116 12.0891 24.4353 11.3979 25.1098 11.4539C25.5672 12.0769 25.2119 14.604 24.6891 15.5476C24.4595 15.9621 24.1477 16.0752 23.5929 16.076ZM11.7911 9.65413C11.7911 8.84206 12.1226 8.03375 12.4853 7.47035C12.8539 6.89753 13.3648 6.43902 13.9668 6.10005C15.3998 5.29325 17.1041 5.44066 18.4166 6.32993C19.0119 6.73324 19.3845 7.24951 19.747 7.85607C20.0265 8.32374 20.5798 8.02536 20.426 7.56848C20.3542 7.35526 20.0026 6.86927 19.8696 6.69895C18.1101 4.44654 14.5636 4.17616 12.5404 6.2523C11.9392 6.86927 11.4025 7.6828 11.2085 8.56093C10.9145 9.8921 11.0567 11.2019 11.7909 12.379C12.4893 13.499 13.1152 13.6926 13.332 13.9637C13.0599 14.1511 12.4103 14.0357 12.4729 14.5721C12.5322 15.0803 13.1542 14.7887 13.4373 14.7103C14.196 14.5001 15.1127 14.3626 15.9728 14.3626C17.7882 14.3626 18.8502 14.8633 19.1644 14.8769C19.372 14.8859 19.5347 14.7228 19.548 14.5381C19.5784 14.1167 18.9673 14.0886 18.6746 13.9628L19.4736 13.3061C19.7171 13.0748 19.908 12.7512 20.132 12.5156C20.3238 12.5215 20.5825 12.6243 20.7871 12.6508C20.7637 13.1636 20.668 13.2365 20.6782 13.9043C20.723 16.8561 24.0499 17.4738 25.102 16.2339C25.7319 15.4916 25.3573 14.9938 25.9857 15.8858C26.5706 16.7159 26.5863 17.2127 26.843 17.6653C27.308 18.4853 28.9398 18.1675 28.9398 19.1261C28.9398 21.2396 29.1557 21.1888 27.9529 21.5721C26.0708 22.1718 26.6984 21.8773 25.8293 23.0311C25.5801 23.3618 25.2977 23.6794 24.988 23.9522C24.6653 24.2362 24.3435 24.4838 23.9724 24.7287C23.6129 24.9659 23.0464 25.199 22.9493 25.4629C22.8654 25.6905 22.4469 28.0614 22.3662 28.432C22.2262 28.484 22.3242 28.4957 22.1357 28.4957H20.648C20.3342 28.4957 20.3749 28.3656 20.3242 28.1036C20.287 27.9118 20.238 27.6787 20.2052 27.4989C20.1382 27.1312 20.1337 26.6506 19.8246 26.4467C19.5339 26.2549 19.0053 26.4363 18.6151 26.4567C17.8131 26.4988 16.7226 26.5941 15.916 26.47C14.825 26.3021 14.9198 26.7941 14.7367 27.6745C14.6466 28.108 14.6896 28.4957 14.3643 28.4957H12.8459C12.6543 28.4957 12.5981 28.4424 12.5679 28.2643L12.1521 26.1064C11.9466 25.2365 12.0477 25.5257 11.2068 24.9865C9.68774 24.0123 8.60927 22.4322 8.3526 20.609C7.92633 17.5812 8.89986 15.1422 11.432 13.5811C11.6827 13.4265 11.7721 13.1162 11.5113 12.9326C11.254 12.7515 11.013 12.9758 10.8008 13.1052C9.31063 14.0137 8.15569 15.5776 7.76809 17.3065L7.64041 17.9299C7.60372 18.0627 7.64118 18.0551 7.51783 18.0256C7.51775 17.4537 7.26591 16.9482 6.90669 16.6562C5.76584 15.729 4.59001 17.2629 5.28987 18.0299C5.51965 18.2817 5.88029 18.4482 6.22546 18.5519C6.32796 18.5827 6.46638 18.6053 6.57689 18.6592C5.74709 19.6891 5.0498 19.2559 4.83885 19.647C4.70424 19.8966 4.86651 20.1732 5.13218 20.2045C5.88962 20.2936 6.56134 19.833 6.99061 19.3114C7.06862 19.2166 7.11948 19.1601 7.1885 19.0551C7.24099 18.9752 7.29014 18.8712 7.35111 18.7744L7.53997 18.7861C7.56112 19.0221 7.51629 19.4405 7.52618 19.7343C7.6092 22.1954 8.67517 24.0726 10.6374 25.4949C11.4342 26.0725 11.3182 25.6369 11.5005 26.6006C11.5719 26.9778 11.8002 28.5105 11.9928 28.8134C12.1636 29.0822 12.426 29.2242 12.7851 29.2242H14.3941C14.8682 29.2242 15.2214 28.9484 15.3199 28.5264C15.4263 28.0708 15.4673 27.6554 15.5879 27.1842C15.7743 27.1822 15.867 27.2169 16.034 27.2268C16.6269 27.262 17.9651 27.2991 18.4867 27.2038L19.1604 27.1317C19.1741 27.1307 19.2704 27.1293 19.2816 27.1309L19.3356 27.145C19.3424 27.1469 19.3557 27.1635 19.3606 27.156C19.3966 27.1 19.5155 27.7944 19.5236 27.8387C19.6443 28.4962 19.6982 29.2242 20.5878 29.2242H22.1963C22.5591 29.2242 22.8335 29.0547 22.9837 28.8109C23.1729 28.504 23.3443 27.2526 23.4284 26.824C23.4973 26.4724 23.563 26.1443 23.6107 25.8052C23.742 25.7109 23.9086 25.6357 24.0404 25.5554C24.1793 25.4708 24.3346 25.3816 24.4713 25.2864C25.4174 24.6269 26.2496 23.8345 26.8438 22.8308C26.9689 22.6196 27.0629 22.6338 27.271 22.564C27.5867 22.4581 27.9716 22.323 28.3017 22.2283C29.0201 22.0222 29.6684 21.6927 29.6684 20.8262V19.0654C29.6684 17.9548 28.6487 17.7776 28.0041 17.5632C27.7077 17.4645 27.5225 17.4557 27.4094 17.1343C27.1444 16.3808 26.8207 15.7075 26.3191 15.0945C26.1956 14.9436 25.9728 14.646 25.8326 14.5558C25.8398 14.3893 25.8939 14.2244 25.9163 14.0792C25.9924 13.5857 26.0341 13.1537 26.0361 12.6293C26.0442 10.5103 25.3968 10.5147 23.6998 10.982C23.1464 11.1343 22.6413 11.3842 22.1062 11.5957C21.9 11.6772 21.5467 11.8228 21.3521 11.9372C21.1589 12.0509 21.2094 11.9894 20.9776 11.9378C20.8223 11.9032 20.6671 11.8769 20.5287 11.8331C20.5505 11.6037 21.1687 10.2293 20.8822 9.78108C20.6954 9.48882 20.2154 9.5992 20.1976 10.0776C20.1848 10.4243 20.1 10.8212 19.9997 11.1028C19.5534 12.3545 18.7793 13.156 17.6192 13.6668C17.35 13.7854 17.3402 13.697 17.0938 13.6796C16.5242 13.6392 15.8469 13.5609 15.2867 13.6502C14.8723 13.7163 14.6227 13.7763 14.2378 13.6054C13.9896 13.4951 13.6823 13.3098 13.4771 13.1505C12.3759 12.2958 11.7909 11.1003 11.7909 9.65422L11.7911 9.65413Z" fill="#F68A29"/>
<path fill-rule="evenodd" clip-rule="evenodd" d="M25.6842 18.1238C25.6834 17.7458 25.239 17.6015 25.027 17.886C24.9234 18.025 24.9814 18.1863 24.8903 18.3315C24.8081 18.4622 24.6975 18.5461 24.5043 18.5459C23.9869 18.5454 24.1228 18.0982 23.9797 17.8892C23.7916 17.6145 23.294 17.7205 23.3094 18.1534C23.332 18.7842 23.8954 19.3013 24.504 19.2969C25.1299 19.2923 25.6857 18.7721 25.6843 18.1238H25.6842Z" fill="#F68A29"/>
<path fill-rule="evenodd" clip-rule="evenodd" d="M14.5716 8.85692L14.1963 8.86385L14.1963 9.34261L14.5606 9.34398L14.5719 9.79799L14.1963 9.80493L14.1963 10.2837L14.5606 10.2851L14.5735 11.8735H15.2835L15.2875 10.2948L15.8626 10.2818L16.3668 11.8736L17.3801 11.8735L17.3871 10.2896L17.754 10.2827V9.8039L17.3896 9.80112L17.3882 9.34848L17.754 9.34163V8.86278L17.3896 8.85996L17.3856 7.27246H16.6707L16.67 8.85889L16.0934 8.86141L15.5828 7.27499L14.572 7.27246L14.5716 8.85692Z" fill="#F68A29"/>
</svg>
